<svg width="1200" height="900" viewBox="0 0 1200 900" fill="none" xmlns="http://www.w3.org/2000/svg"><rect width="1200" height="900" rx="48" fill="#0A1327"/><rect x="52" y="52" width="1096" height="796" rx="36" fill="url(#bg)"/><rect x="110" y="110" width="420" height="640" rx="34" fill="#F8FAFC" fill-opacity="0.12"/><rect x="162" y="168" width="316" height="22" rx="11" fill="#7DD3FC"/><rect x="162" y="212" width="220" height="16" rx="8" fill="#F8FAFC" fill-opacity="0.58"/><rect x="162" y="282" width="316" height="186" rx="28" fill="#C4B5FD" fill-opacity="0.3"/><rect x="162" y="508" width="142" height="62" rx="20" fill="#34D399" fill-opacity="0.52"/><rect x="324" y="508" width="154" height="62" rx="20" fill="#38BDF8" fill-opacity="0.45"/><rect x="584" y="110" width="506" height="96" rx="28" fill="#F8FAFC" fill-opacity="0.12"/><rect x="626" y="144" width="214" height="18" rx="9" fill="#E2E8F0" fill-opacity="0.7"/><rect x="584" y="244" width="506" height="506" rx="34" fill="#F8FAFC" fill-opacity="0.12"/><rect x="626" y="294" width="422" height="22" rx="11" fill="#A78BFA"/><rect x="626" y="344" width="336" height="18" rx="9" fill="#F8FAFC" fill-opacity="0.52"/><rect x="626" y="392" width="372" height="18" rx="9" fill="#F8FAFC" fill-opacity="0.52"/><rect x="626" y="462" width="180" height="190" rx="26" fill="#F8FAFC" fill-opacity="0.12"/><rect x="834" y="462" width="214" height="84" rx="24" fill="#38BDF8" fill-opacity="0.3"/><rect x="834" y="568" width="214" height="84" rx="24" fill="#34D399" fill-opacity="0.28"/><defs><linearGradient id="bg" x1="52" y1="52" x2="1148" y2="848" gradientUnits="userSpaceOnUse"><stop stop-color="#111827"/><stop offset="1" stop-color="#7C3AED"/></linearGradient></defs></svg>
