<svg width="1200" height="900" viewBox="0 0 1200 900" fill="none" xmlns="http://www.w3.org/2000/svg"><rect width="1200" height="900" rx="48" fill="#09111E"/><rect x="52" y="52" width="1096" height="796" rx="36" fill="url(#bg)"/><rect x="96" y="110" width="1008" height="96" rx="30" fill="#F8FAFC" fill-opacity="0.1"/><rect x="136" y="146" width="240" height="18" rx="9" fill="#F8FAFC" fill-opacity="0.7"/><rect x="858" y="136" width="200" height="38" rx="19" fill="#7DD3FC" fill-opacity="0.7"/><rect x="96" y="242" width="1008" height="280" rx="36" fill="#F8FAFC" fill-opacity="0.1"/><rect x="146" y="302" width="420" height="24" rx="12" fill="#A78BFA"/><rect x="146" y="350" width="328" height="18" rx="9" fill="#E2E8F0" fill-opacity="0.72"/><rect x="146" y="392" width="290" height="18" rx="9" fill="#E2E8F0" fill-opacity="0.52"/><rect x="146" y="444" width="170" height="56" rx="18" fill="#34D399" fill-opacity="0.48"/><rect x="694" y="286" width="350" height="192" rx="28" fill="#38BDF8" fill-opacity="0.25"/><rect x="96" y="556" width="320" height="242" rx="30" fill="#F8FAFC" fill-opacity="0.1"/><rect x="440" y="556" width="320" height="242" rx="30" fill="#F8FAFC" fill-opacity="0.1"/><rect x="784" y="556" width="320" height="242" rx="30" fill="#F8FAFC" fill-opacity="0.1"/><defs><linearGradient id="bg" x1="52" y1="52" x2="1148" y2="848" gradientUnits="userSpaceOnUse"><stop stop-color="#0F172A"/><stop offset="1" stop-color="#0F766E"/></linearGradient></defs></svg>
