<svg width="1200" height="900" viewBox="0 0 1200 900" fill="none" xmlns="http://www.w3.org/2000/svg"><rect width="1200" height="900" rx="48" fill="#0B1225"/><rect x="52" y="52" width="1096" height="796" rx="36" fill="url(#bg)"/><rect x="100" y="110" width="1000" height="80" rx="24" fill="#EFF6FF" fill-opacity="0.12"/><rect x="132" y="138" width="240" height="24" rx="12" fill="#7DD3FC"/><rect x="882" y="130" width="170" height="40" rx="20" fill="#C4B5FD"/><rect x="100" y="230" width="280" height="470" rx="30" fill="#F8FAFC" fill-opacity="0.1"/><rect x="132" y="268" width="216" height="220" rx="26" fill="#38BDF8" fill-opacity="0.32"/><rect x="132" y="516" width="156" height="26" rx="13" fill="#F8FAFC" fill-opacity="0.6"/><rect x="132" y="558" width="118" height="18" rx="9" fill="#E2E8F0" fill-opacity="0.7"/><rect x="412" y="230" width="688" height="120" rx="30" fill="#F8FAFC" fill-opacity="0.1"/><rect x="448" y="268" width="256" height="20" rx="10" fill="#A78BFA"/><rect x="448" y="304" width="176" height="16" rx="8" fill="#F8FAFC" fill-opacity="0.58"/><rect x="412" y="382" width="324" height="318" rx="30" fill="#F8FAFC" fill-opacity="0.1"/><rect x="776" y="382" width="324" height="318" rx="30" fill="#F8FAFC" fill-opacity="0.1"/><rect x="448" y="426" width="252" height="168" rx="24" fill="#C4B5FD" fill-opacity="0.35"/><rect x="812" y="426" width="252" height="28" rx="14" fill="#7DD3FC" fill-opacity="0.7"/><rect x="812" y="474" width="190" height="18" rx="9" fill="#F8FAFC" fill-opacity="0.58"/><rect x="812" y="516" width="226" height="18" rx="9" fill="#F8FAFC" fill-opacity="0.58"/><rect x="812" y="568" width="146" height="58" rx="18" fill="#34D399" fill-opacity="0.55"/><defs><linearGradient id="bg" x1="52" y1="52" x2="1148" y2="848" gradientUnits="userSpaceOnUse"><stop stop-color="#0F172A"/><stop offset="1" stop-color="#1D4ED8"/></linearGradient></defs></svg>
