<svg width="1200" height="900" viewBox="0 0 1200 900" fill="none" xmlns="http://www.w3.org/2000/svg"><rect width="1200" height="900" rx="48" fill="#07111F"/><rect x="52" y="52" width="1096" height="796" rx="36" fill="url(#bg)"/><rect x="104" y="116" width="992" height="104" rx="30" fill="#F8FAFC" fill-opacity="0.1"/><rect x="144" y="154" width="240" height="20" rx="10" fill="#7DD3FC"/><rect x="920" y="146" width="128" height="36" rx="18" fill="#34D399" fill-opacity="0.72"/><rect x="104" y="262" width="286" height="536" rx="32" fill="#F8FAFC" fill-opacity="0.1"/><rect x="434" y="262" width="662" height="244" rx="32" fill="#F8FAFC" fill-opacity="0.1"/><rect x="434" y="554" width="662" height="244" rx="32" fill="#F8FAFC" fill-opacity="0.1"/><rect x="148" y="312" width="198" height="18" rx="9" fill="#F8FAFC" fill-opacity="0.58"/><rect x="148" y="362" width="198" height="116" rx="26" fill="#A78BFA" fill-opacity="0.28"/><rect x="148" y="516" width="198" height="116" rx="26" fill="#38BDF8" fill-opacity="0.24"/><rect x="478" y="316" width="280" height="24" rx="12" fill="#F8FAFC" fill-opacity="0.7"/><rect x="478" y="364" width="236" height="18" rx="9" fill="#E2E8F0" fill-opacity="0.52"/><rect x="830" y="316" width="222" height="142" rx="26" fill="#34D399" fill-opacity="0.28"/><rect x="478" y="608" width="498" height="22" rx="11" fill="#A78BFA"/><rect x="478" y="652" width="430" height="18" rx="9" fill="#E2E8F0" fill-opacity="0.55"/><rect x="478" y="696" width="362" height="18" rx="9" fill="#E2E8F0" fill-opacity="0.45"/><defs><linearGradient id="bg" x1="52" y1="52" x2="1148" y2="848" gradientUnits="userSpaceOnUse"><stop stop-color="#111827"/><stop offset="1" stop-color="#1D4ED8"/></linearGradient></defs></svg>
