<svg width="1200" height="900" viewBox="0 0 1200 900" fill="none" xmlns="http://www.w3.org/2000/svg"><rect width="1200" height="900" rx="48" fill="#0A1120"/><rect x="52" y="52" width="1096" height="796" rx="36" fill="url(#bg)"/><rect x="134" y="128" width="360" height="650" rx="40" fill="#F8FAFC" fill-opacity="0.12"/><rect x="180" y="178" width="268" height="170" rx="30" fill="#FB7185" fill-opacity="0.35"/><rect x="180" y="382" width="268" height="22" rx="11" fill="#F8FAFC" fill-opacity="0.6"/><rect x="180" y="424" width="198" height="16" rx="8" fill="#E2E8F0" fill-opacity="0.72"/><rect x="180" y="490" width="268" height="92" rx="24" fill="#F59E0B" fill-opacity="0.35"/><rect x="180" y="612" width="128" height="56" rx="18" fill="#34D399" fill-opacity="0.5"/><rect x="552" y="128" width="514" height="120" rx="30" fill="#F8FAFC" fill-opacity="0.12"/><rect x="596" y="172" width="246" height="18" rx="9" fill="#7DD3FC"/><rect x="552" y="286" width="514" height="492" rx="34" fill="#F8FAFC" fill-opacity="0.12"/><rect x="596" y="338" width="188" height="154" rx="26" fill="#F59E0B" fill-opacity="0.3"/><rect x="814" y="338" width="208" height="28" rx="14" fill="#F8FAFC" fill-opacity="0.6"/><rect x="814" y="388" width="162" height="18" rx="9" fill="#E2E8F0" fill-opacity="0.68"/><rect x="814" y="438" width="190" height="18" rx="9" fill="#E2E8F0" fill-opacity="0.68"/><rect x="596" y="530" width="426" height="190" rx="28" fill="#111827" fill-opacity="0.35"/><defs><linearGradient id="bg" x1="52" y1="52" x2="1148" y2="848" gradientUnits="userSpaceOnUse"><stop stop-color="#111827"/><stop offset="1" stop-color="#7C2D12"/></linearGradient></defs></svg>
