<svg width="1200" height="900" viewBox="0 0 1200 900" fill="none" xmlns="http://www.w3.org/2000/svg"><rect width="1200" height="900" rx="48" fill="#081225"/><rect x="50" y="50" width="1100" height="800" rx="36" fill="url(#bg)"/><rect x="92" y="104" width="300" height="692" rx="30" fill="#F8FAFC" fill-opacity="0.1"/><rect x="132" y="154" width="220" height="18" rx="9" fill="#A78BFA"/><rect x="132" y="196" width="180" height="18" rx="9" fill="#F8FAFC" fill-opacity="0.58"/><rect x="132" y="270" width="220" height="104" rx="24" fill="#38BDF8" fill-opacity="0.28"/><rect x="132" y="402" width="220" height="104" rx="24" fill="#34D399" fill-opacity="0.25"/><rect x="132" y="534" width="220" height="104" rx="24" fill="#C4B5FD" fill-opacity="0.28"/><rect x="430" y="104" width="628" height="120" rx="30" fill="#F8FAFC" fill-opacity="0.1"/><rect x="470" y="144" width="260" height="20" rx="10" fill="#7DD3FC"/><rect x="802" y="136" width="210" height="36" rx="18" fill="#F8FAFC" fill-opacity="0.18"/><rect x="430" y="264" width="300" height="240" rx="30" fill="#F8FAFC" fill-opacity="0.1"/><rect x="758" y="264" width="300" height="240" rx="30" fill="#F8FAFC" fill-opacity="0.1"/><rect x="430" y="534" width="628" height="262" rx="30" fill="#F8FAFC" fill-opacity="0.1"/><rect x="470" y="578" width="548" height="22" rx="11" fill="#E2E8F0" fill-opacity="0.6"/><rect x="470" y="626" width="420" height="18" rx="9" fill="#F8FAFC" fill-opacity="0.45"/><rect x="470" y="668" width="476" height="18" rx="9" fill="#F8FAFC" fill-opacity="0.45"/><defs><linearGradient id="bg" x1="50" y1="50" x2="1150" y2="850" gradientUnits="userSpaceOnUse"><stop stop-color="#0F172A"/><stop offset="1" stop-color="#0F766E"/></linearGradient></defs></svg>
